<mxfile host="app.diagrams.net" modified="2023-01-30T07:57:30.506Z" agent="5.0 (Windows)" etag="GnLYEjXDv6ky9HoB8ynY" version="20.8.13" type="github">
  <diagram name="第 1 页" id="AH_w1nHqAPpir6q_A99F">
    <mxGraphModel dx="1434" dy="782" grid="1" gridSize="10" guides="1" tooltips="1" connect="1" arrows="1" fold="1" page="1" pageScale="1" pageWidth="827" pageHeight="1169" math="0" shadow="0">
      <root>
        <mxCell id="0" />
        <mxCell id="1" parent="0" />
        <mxCell id="Z-bGXqOTahaZ1RSi7V5y-1" value="名称" style="rounded=0;whiteSpace=wrap;html=1;" vertex="1" parent="1">
          <mxGeometry x="110" y="125" width="120" height="60" as="geometry" />
        </mxCell>
        <mxCell id="Z-bGXqOTahaZ1RSi7V5y-2" value="宽度" style="rounded=0;whiteSpace=wrap;html=1;" vertex="1" parent="1">
          <mxGeometry x="110" y="205" width="120" height="60" as="geometry" />
        </mxCell>
        <mxCell id="Z-bGXqOTahaZ1RSi7V5y-3" value="访问属性" style="rounded=0;whiteSpace=wrap;html=1;" vertex="1" parent="1">
          <mxGeometry x="110" y="285" width="120" height="60" as="geometry" />
        </mxCell>
        <mxCell id="Z-bGXqOTahaZ1RSi7V5y-4" value="描述" style="rounded=0;whiteSpace=wrap;html=1;" vertex="1" parent="1">
          <mxGeometry x="110" y="365" width="120" height="60" as="geometry" />
        </mxCell>
        <mxCell id="Z-bGXqOTahaZ1RSi7V5y-5" value="地址" style="rounded=0;whiteSpace=wrap;html=1;" vertex="1" parent="1">
          <mxGeometry x="110" y="445" width="120" height="60" as="geometry" />
        </mxCell>
        <mxCell id="Z-bGXqOTahaZ1RSi7V5y-6" value="寄存器" style="text;html=1;align=center;verticalAlign=middle;resizable=0;points=[];autosize=1;strokeColor=none;fillColor=none;" vertex="1" parent="1">
          <mxGeometry x="140" y="80" width="60" height="30" as="geometry" />
        </mxCell>
        <mxCell id="Z-bGXqOTahaZ1RSi7V5y-7" value="名称" style="rounded=0;whiteSpace=wrap;html=1;" vertex="1" parent="1">
          <mxGeometry x="300" y="125" width="120" height="60" as="geometry" />
        </mxCell>
        <mxCell id="Z-bGXqOTahaZ1RSi7V5y-8" value="位" style="text;html=1;align=center;verticalAlign=middle;resizable=0;points=[];autosize=1;strokeColor=none;fillColor=none;" vertex="1" parent="1">
          <mxGeometry x="340" y="80" width="40" height="30" as="geometry" />
        </mxCell>
        <mxCell id="Z-bGXqOTahaZ1RSi7V5y-9" value="宽度" style="rounded=0;whiteSpace=wrap;html=1;" vertex="1" parent="1">
          <mxGeometry x="300" y="205" width="120" height="60" as="geometry" />
        </mxCell>
        <mxCell id="Z-bGXqOTahaZ1RSi7V5y-11" value="访问属性" style="rounded=0;whiteSpace=wrap;html=1;" vertex="1" parent="1">
          <mxGeometry x="300" y="285" width="120" height="60" as="geometry" />
        </mxCell>
        <mxCell id="Z-bGXqOTahaZ1RSi7V5y-12" value="描述" style="rounded=0;whiteSpace=wrap;html=1;" vertex="1" parent="1">
          <mxGeometry x="300" y="365" width="120" height="60" as="geometry" />
        </mxCell>
        <mxCell id="Z-bGXqOTahaZ1RSi7V5y-13" value="位值" style="text;html=1;align=center;verticalAlign=middle;resizable=0;points=[];autosize=1;strokeColor=none;fillColor=none;" vertex="1" parent="1">
          <mxGeometry x="520" y="80" width="50" height="30" as="geometry" />
        </mxCell>
        <mxCell id="Z-bGXqOTahaZ1RSi7V5y-14" value="值" style="rounded=0;whiteSpace=wrap;html=1;" vertex="1" parent="1">
          <mxGeometry x="485" y="125" width="120" height="60" as="geometry" />
        </mxCell>
        <mxCell id="Z-bGXqOTahaZ1RSi7V5y-15" value="描述" style="rounded=0;whiteSpace=wrap;html=1;" vertex="1" parent="1">
          <mxGeometry x="485" y="205" width="120" height="60" as="geometry" />
        </mxCell>
        <mxCell id="Z-bGXqOTahaZ1RSi7V5y-17" value="复位/默认值" style="rounded=0;whiteSpace=wrap;html=1;" vertex="1" parent="1">
          <mxGeometry x="484" y="285" width="120" height="60" as="geometry" />
        </mxCell>
      </root>
    </mxGraphModel>
  </diagram>
</mxfile>
